<?xml version="1.0" encoding="UTF-8" standalone="no"?>
<!DOCTYPE svg PUBLIC "-//W3C//DTD SVG 1.1//EN" "http://www.w3.org/Graphics/SVG/1.1/DTD/svg11.dtd">
<svg width="100%" height="100%" viewBox="0 0 788 699" version="1.1" xmlns="http://www.w3.org/2000/svg" xmlns:xlink="http://www.w3.org/1999/xlink" xml:space="preserve" style="fill-rule:evenodd;clip-rule:evenodd;stroke-linejoin:round;stroke-miterlimit:1.41421;">
    <g transform="matrix(1,0,0,1,-666.617,-54.2365)">
        <g transform="matrix(4.16667,0,0,4.16667,0,0)">
            <g transform="matrix(1,0,0,1,103.487,-53.8365)">
                <path d="M146.471,148.673C128.575,155.015 108.803,156.537 93.806,151.625C78.319,146.553 71.668,135.848 74.365,123.849L74.202,124.595C73.398,129.252 72.64,133.651 72.819,140.294C73.276,146.601 73.346,147.571 74.415,152.666C76.363,161.276 83.536,168.466 95.725,172.458C110.231,177.209 128.83,176.445 146.471,171.391L146.471,148.673Z" style="fill:rgb(250,167,80);fill-rule:nonzero;"/>
            </g>
        </g>
        <g transform="matrix(4.16667,0,0,4.16667,0,0)">
            <g transform="matrix(1,0,0,1,103.487,-53.8365)">
                <path d="M137.588,196.346C136.917,196.192 136.263,196.038 135.683,195.907C136.309,196.067 136.945,196.212 137.588,196.346Z" style="fill:rgb(49,132,180);fill-rule:nonzero;"/>
            </g>
        </g>
        <g transform="matrix(4.16667,0,0,4.16667,0,0)">
            <g transform="matrix(1,0,0,1,103.487,-53.8365)">
                <path d="M197.317,179.626C182.078,193.291 156.377,200.264 137.588,196.346C138.657,196.592 139.77,196.839 140.704,196.993C145.613,197.71 145.707,197.724 148.547,197.885C153.052,198.006 153.052,198.006 155.423,197.885C159.545,197.569 159.545,197.569 161.627,197.26C165.492,196.596 165.492,196.596 167.4,196.135C171.114,195.15 171.114,195.15 172.933,194.538C176.523,193.24 176.592,193.215 178.385,192.427C182.009,190.734 182.078,190.702 183.911,189.681C187.572,187.517 187.715,187.432 189.656,186.071C193.396,183.284 193.621,183.117 195.746,181.225C197.034,179.999 198.746,178.357 199.978,177.074L201.089,175.852C199.962,177.12 198.705,178.381 197.317,179.626Z" style="fill:rgb(49,132,180);fill-rule:nonzero;"/>
            </g>
        </g>
        <g transform="matrix(4.16667,0,0,4.16667,0,0)">
            <g transform="matrix(1,0,0,1,103.487,-53.8365)">
                <path d="M96.033,166.543C95.779,166.135 95.533,165.739 95.302,165.375C95.531,165.77 95.776,166.158 96.033,166.543Z" style="fill:rgb(49,132,180);fill-rule:nonzero;"/>
            </g>
        </g>
        <g transform="matrix(4.16667,0,0,4.16667,0,0)">
            <g transform="matrix(1,0,0,1,103.487,-53.8365)">
                <path d="M217.521,130.313L217.409,128.085C218.021,137.276 213.003,147.744 202.121,157.503C179.464,177.821 139.969,187.371 113.904,178.833C105.5,176.081 99.521,171.783 96.033,166.543C96.953,168.023 97.992,169.7 98.927,170.954C102.719,175.78 103.403,176.649 107.525,180.623C112.443,184.826 112.443,184.826 115.129,186.647C117.667,188.359 120.695,189.818 124.208,190.969C146.979,198.427 181.484,190.084 201.277,172.334C206.92,167.273 210.758,161.995 212.834,156.86C214.859,151.242 215.119,150.521 216.138,146.012C216.941,141.354 217.7,136.956 217.521,130.313Z" style="fill:rgb(49,132,180);fill-rule:nonzero;"/>
            </g>
        </g>
        <g transform="matrix(4.16667,0,0,4.16667,0,0)">
            <g transform="matrix(1,0,0,1,103.487,-53.8365)">
                <path d="M198.988,145.01C212.673,132.738 217.229,119.362 213.11,108.71C212.134,106.454 210.801,103.455 209.686,101.264C206.457,95.789 205.96,94.947 202.5,90.585C201.264,89.203 199.692,87.479 198.256,85.99C207.843,96.358 205.223,111.958 189.578,125.988C168.484,144.904 131.711,153.796 107.443,145.848C91.956,140.775 85.304,130.07 88.002,118.071L87.839,118.818C87.035,123.475 86.276,127.874 86.456,134.517C86.913,140.824 86.983,141.793 88.052,146.889C90,155.499 97.173,162.688 109.362,166.681C135.843,175.354 175.97,165.651 198.988,145.01Z" style="fill:rgb(49,132,180);fill-rule:nonzero;"/>
            </g>
        </g>
        <g transform="matrix(4.16667,0,0,4.16667,0,0)">
            <g transform="matrix(1,0,0,1,103.487,-53.8365)">
                <path d="M197.056,84.77C197.437,85.147 197.842,85.56 198.256,85.99C197.874,85.576 197.478,85.167 197.056,84.77Z" style="fill:rgb(49,132,180);fill-rule:nonzero;"/>
            </g>
        </g>
        <g transform="matrix(4.16667,0,0,4.16667,0,0)">
            <g transform="matrix(1,0,0,1,103.487,-53.8365)">
                <path d="M112.711,80.662C125.24,69.427 147.08,64.146 161.493,68.867C175.905,73.587 177.433,86.521 164.905,97.756C152.377,108.99 130.537,114.271 116.124,109.551C101.711,104.83 100.184,91.896 112.711,80.662ZM109.276,130.942C130.36,137.848 162.311,130.122 180.639,113.687C197.628,98.452 196.948,81.08 179.962,73.123C177.72,72.161 174.7,70.945 172.404,70.123C167.162,68.588 166.848,68.496 163.273,67.836C158.364,67.119 158.27,67.105 155.429,66.944C150.925,66.823 150.925,66.823 148.554,66.944C144.432,67.26 144.432,67.26 142.35,67.569C138.486,68.233 138.486,68.233 136.577,68.695C132.863,69.679 132.863,69.679 131.044,70.291C127.454,71.589 127.385,71.614 125.592,72.402C121.969,74.095 121.899,74.127 120.067,75.148C116.406,77.312 116.263,77.397 114.322,78.758C110.581,81.545 110.357,81.712 108.232,83.603C106.944,84.83 105.232,86.472 104,87.755C100.554,91.696 100.111,92.202 97.787,95.526L95.732,98.737C87.607,112.211 92.414,125.419 109.276,130.942Z" style="fill:rgb(49,132,180);fill-rule:nonzero;"/>
            </g>
        </g>
        <g transform="matrix(4.16667,0,0,4.16667,0,0)">
            <g transform="matrix(1,0,0,1,103.487,-53.8365)">
                <path d="M123.348,96.245C132.132,99.122 145.442,95.904 153.077,89.057C160.712,82.21 159.781,74.327 150.998,71.45C142.214,68.573 128.904,71.791 121.269,78.639C113.633,85.485 114.564,93.368 123.348,96.245Z" style="fill:rgb(49,132,180);fill-rule:nonzero;"/>
            </g>
        </g>
        <g transform="matrix(4.16667,0,0,4.16667,0,0)">
            <g transform="matrix(1,0,0,1,103.487,-53.8365)">
                <path d="M187.094,185.585C177.021,194.618 159.462,198.864 147.875,195.069C136.287,191.273 135.059,180.875 145.131,171.842C155.204,162.809 172.763,158.563 184.351,162.359C195.938,166.154 197.167,176.553 187.094,185.585ZM192.824,141.59C173.848,135.375 145.093,142.328 128.599,157.119C112.104,171.911 114.116,188.94 133.092,195.155C133.937,195.432 134.801,195.682 135.683,195.907C137.178,196.279 139.194,196.68 140.704,196.993C143.577,197.484 143.952,197.515 148.547,197.885C150.962,198.008 151.129,198.003 155.423,197.885C157.548,197.771 157.625,197.762 161.627,197.26C163.581,196.969 163.653,196.953 167.4,196.135C169.267,195.684 169.267,195.684 172.933,194.538C174.779,193.917 174.779,193.917 178.385,192.427C180.28,191.594 180.28,191.594 183.911,189.681C185.935,188.548 185.935,188.548 189.656,186.071C191.909,184.475 191.981,184.415 195.746,181.225C197.052,180.019 198.727,178.338 199.978,177.074L201.089,175.852C213.353,162.044 210.203,147.282 192.824,141.59Z" style="fill:rgb(90,179,228);fill-rule:nonzero;"/>
            </g>
        </g>
        <g transform="matrix(4.16667,0,0,4.16667,0,0)">
            <g transform="matrix(1,0,0,1,103.487,-53.8365)">
                <path d="M217.409,128.085C216.746,118.143 209.494,109.695 195.95,105.259C169.885,96.723 130.389,106.272 107.733,126.589C92.918,139.875 88.972,154.474 95.302,165.375C96.323,167.09 97.82,169.293 98.927,170.954C102.427,175.554 103.305,176.427 107.525,180.623C109.613,182.546 109.962,182.853 113.367,185.355C101.33,175.771 102.82,159.672 118.817,145.327C138.61,127.577 173.115,119.234 195.886,126.692C212.164,132.023 218.039,143.987 212.834,156.86C214.487,152.59 214.643,151.967 216.138,146.012C217.468,139.552 217.493,135.064 217.521,130.313L217.409,128.085Z" style="fill:rgb(90,179,228);fill-rule:nonzero;"/>
            </g>
        </g>
        <g transform="matrix(4.16667,0,0,4.16667,0,0)">
            <g transform="matrix(1,0,0,1,103.487,-53.8365)">
                <path d="M113.367,185.355C113.926,185.8 114.512,186.232 115.129,186.647C114.461,186.158 113.88,185.732 113.367,185.355Z" style="fill:rgb(90,179,228);fill-rule:nonzero;"/>
            </g>
        </g>
        <g transform="matrix(4.16667,0,0,4.16667,0,0)">
            <g transform="matrix(1,0,0,1,103.487,-53.8365)">
                <path d="M212.517,107.323C212.727,107.803 212.929,108.272 213.11,108.71C212.929,108.243 212.731,107.78 212.517,107.323Z" style="fill:rgb(90,179,228);fill-rule:nonzero;"/>
            </g>
        </g>
        <g transform="matrix(4.16667,0,0,4.16667,0,0)">
            <g transform="matrix(1,0,0,1,103.487,-53.8365)">
                <path d="M87.769,145.364C87.847,145.876 87.938,146.385 88.052,146.889C87.95,146.341 87.856,145.836 87.769,145.364Z" style="fill:rgb(90,179,228);fill-rule:nonzero;"/>
            </g>
        </g>
        <g transform="matrix(4.16667,0,0,4.16667,0,0)">
            <g transform="matrix(1,0,0,1,103.487,-53.8365)">
                <path d="M103.092,113.602C126.11,92.96 166.237,83.258 192.718,91.931C202.765,95.221 209.403,100.684 212.517,107.323C211.637,105.317 210.556,103.047 209.686,101.264C206.92,96.372 206.246,95.488 202.5,90.585C200.934,88.78 198.729,86.477 197.056,84.77C193.799,81.705 189.383,79.164 183.833,77.346C159.565,69.397 122.792,78.289 101.697,97.205C94.064,104.049 89.531,111.268 88.002,118.071L87.839,118.818C86.509,125.278 86.483,129.765 86.456,134.517C86.688,139.222 86.836,140.315 87.769,145.364C86.28,135.592 91.288,124.187 103.092,113.602Z" style="fill:rgb(90,179,228);fill-rule:nonzero;"/>
            </g>
        </g>
        <g transform="matrix(4.16667,0,0,4.16667,0,0)">
            <g transform="matrix(1,0,0,1,103.487,-53.8365)">
                <path d="M177.299,72.009C178.242,72.391 179.154,72.771 179.962,73.123C179.116,72.727 178.226,72.357 177.299,72.009Z" style="fill:rgb(90,179,228);fill-rule:nonzero;"/>
            </g>
        </g>
        <g transform="matrix(4.16667,0,0,4.16667,0,0)">
            <g transform="matrix(1,0,0,1,103.487,-53.8365)">
                <path d="M104.284,88.679C122.612,72.244 154.562,64.519 175.646,71.424C176.212,71.61 176.76,71.807 177.299,72.009C176.342,71.622 175.356,71.235 174.41,70.873C174.288,70.822 174.167,70.769 174.043,70.72C173.503,70.502 172.956,70.303 172.404,70.123L172.405,70.123L172.404,70.123C168.836,68.99 168.203,68.859 163.273,67.836C160.399,67.345 160.024,67.315 155.429,66.944C153.015,66.821 152.847,66.826 148.554,66.944C146.429,67.058 146.352,67.067 142.35,67.569C140.396,67.86 140.324,67.876 136.577,68.695C134.71,69.146 134.71,69.146 131.044,70.291C129.198,70.913 129.198,70.913 125.592,72.402C123.697,73.235 123.697,73.235 120.067,75.148C118.043,76.281 118.043,76.281 114.322,78.758C112.069,80.353 111.997,80.415 108.232,83.603C106.926,84.81 105.251,86.491 104,87.755C101.302,90.717 100.969,91.172 97.787,95.526L96.652,97.3C98.596,94.402 101.134,91.504 104.284,88.679Z" style="fill:rgb(90,179,228);fill-rule:nonzero;"/>
            </g>
        </g>
        <g transform="matrix(4.16667,0,0,4.16667,0,0)">
            <g transform="matrix(1,0,0,1,103.487,-53.8365)">
                <path d="M96.652,97.3C96.331,97.779 96.021,98.258 95.732,98.737L96.652,97.3Z" style="fill:rgb(90,179,228);fill-rule:nonzero;"/>
            </g>
        </g>
        <g transform="matrix(4.16667,0,0,4.16667,0,0)">
            <g transform="matrix(1,0,0,1,103.487,-53.8365)">
                <path d="M154.458,192.391C163.242,195.268 176.552,192.05 184.187,185.203C191.822,178.356 190.891,170.473 182.107,167.596C173.324,164.72 160.013,167.938 152.378,174.785C144.743,181.632 145.674,189.514 154.458,192.391Z" style="fill:rgb(90,179,228);fill-rule:nonzero;"/>
            </g>
        </g>
        <g transform="matrix(4.16667,0,0,4.16667,0,0)">
            <g transform="matrix(1,0,0,1,103.487,-53.8365)">
                <path d="M175.39,88.255L140.552,72.009L140.552,80.759C121.563,82.847 101.588,90.852 88.06,102.982C80.428,109.827 75.894,117.045 74.365,123.849L74.202,124.595C72.872,131.055 72.847,135.542 72.819,140.294C73.051,144.999 73.199,146.092 74.132,151.141C72.644,141.37 77.651,129.964 89.455,119.379C102.754,107.453 121.763,99.182 140.552,95.993L140.552,104.5L175.39,88.255Z" style="fill:rgb(253,221,121);fill-rule:nonzero;"/>
            </g>
        </g>
        <g transform="matrix(4.16667,0,0,4.16667,0,0)">
            <g transform="matrix(0.24,0,0,0.24,138.554,-0.82195)">
                <path d="M126.183,755.683C121.516,755.683 116.974,755.329 112.558,754.62C108.141,753.912 104.224,752.62 100.808,750.745C97.391,748.87 94.62,746.245 92.495,742.87C90.37,739.495 89.308,735.141 89.308,729.808C89.308,724.224 90.453,719.995 92.745,717.12C95.037,714.245 98.099,712.099 101.933,710.683C97.516,708.516 94.495,705.808 92.87,702.558C91.245,699.308 90.433,695.474 90.433,691.058C90.433,685.808 91.328,681.516 93.12,678.183C94.912,674.849 97.433,672.204 100.683,670.245C103.933,668.287 107.808,666.933 112.308,666.183C116.808,665.433 121.766,665.058 127.183,665.058L164.558,665.058C169.974,665.058 174.933,665.433 179.433,666.183C183.933,666.933 187.808,668.287 191.058,670.245C194.308,672.204 196.828,674.849 198.62,678.183C200.412,681.516 201.308,685.808 201.308,691.058C201.308,695.474 200.495,699.308 198.87,702.558C197.245,705.808 194.224,708.516 189.808,710.683C193.641,712.099 196.703,714.245 198.995,717.12C201.287,719.995 202.433,724.224 202.433,729.808C202.433,735.141 201.37,739.495 199.245,742.87C197.12,746.245 194.349,748.87 190.933,750.745C187.516,752.62 183.578,753.912 179.12,754.62C174.662,755.329 170.141,755.683 165.558,755.683L126.183,755.683ZM106.308,730.308C106.308,732.391 106.516,734.183 106.933,735.683C107.349,737.183 108.224,738.412 109.558,739.37C110.891,740.329 112.787,741.037 115.245,741.495C117.703,741.954 121.016,742.183 125.183,742.183L166.558,742.183C170.641,742.183 173.933,741.954 176.433,741.495C178.933,741.037 180.849,740.329 182.183,739.37C183.516,738.412 184.391,737.183 184.808,735.683C185.224,734.183 185.433,732.391 185.433,730.308C185.433,727.891 185.183,725.829 184.683,724.12C184.183,722.412 183.183,721.037 181.683,719.995C180.183,718.954 178.078,718.183 175.37,717.683C172.662,717.183 169.141,716.933 164.808,716.933L126.933,716.933C122.516,716.933 118.974,717.183 116.308,717.683C113.641,718.183 111.558,718.954 110.058,719.995C108.558,721.037 107.558,722.412 107.058,724.12C106.558,725.829 106.308,727.891 106.308,730.308ZM125.433,678.558C121.516,678.558 118.308,678.787 115.808,679.245C113.308,679.704 111.37,680.433 109.995,681.433C108.62,682.433 107.683,683.724 107.183,685.308C106.683,686.891 106.433,688.766 106.433,690.933C106.433,693.599 106.745,695.745 107.37,697.37C107.995,698.995 109.078,700.245 110.62,701.12C112.162,701.995 114.183,702.599 116.683,702.933C119.183,703.266 122.308,703.433 126.058,703.433L165.683,703.433C169.433,703.433 172.558,703.266 175.058,702.933C177.558,702.599 179.578,701.995 181.12,701.12C182.662,700.245 183.745,698.995 184.37,697.37C184.995,695.745 185.308,693.599 185.308,690.933C185.308,688.766 185.058,686.891 184.558,685.308C184.058,683.724 183.12,682.433 181.745,681.433C180.37,680.433 178.433,679.704 175.933,679.245C173.433,678.787 170.224,678.558 166.308,678.558L125.433,678.558Z" style="fill:white;fill-rule:nonzero;"/>
                <path d="M247.308,717.683C239.974,717.683 234.787,718.641 231.745,720.558C228.703,722.474 227.183,724.766 227.183,727.433L227.183,742.183L322.433,742.183C324.433,742.183 325.745,742.745 326.37,743.87C326.995,744.995 327.308,746.683 327.308,748.933C327.308,751.183 326.995,752.87 326.37,753.995C325.745,755.12 324.433,755.683 322.433,755.683L216.558,755.683C212.641,755.683 210.683,753.641 210.683,749.558L210.683,727.433C210.683,711.933 223.016,704.183 247.683,704.183L290.683,704.183C298.016,704.183 303.203,703.224 306.245,701.308C309.287,699.391 310.808,697.099 310.808,694.433L310.808,688.308C310.808,685.558 309.287,683.245 306.245,681.37C303.203,679.495 298.016,678.558 290.683,678.558L271.308,678.558C269.308,678.558 267.995,677.995 267.37,676.87C266.745,675.745 266.433,674.058 266.433,671.808C266.433,669.558 266.745,667.87 267.37,666.745C267.995,665.62 269.308,665.058 271.308,665.058L290.308,665.058C314.974,665.058 327.308,672.808 327.308,688.308L327.308,694.433C327.308,709.933 314.974,717.683 290.308,717.683L247.308,717.683Z" style="fill:white;fill-rule:nonzero;"/>
                <path d="M433.808,665.058C438.308,665.058 441.724,665.641 444.058,666.808C446.391,667.974 447.558,670.266 447.558,673.683C447.558,674.766 447.391,675.745 447.058,676.62C446.724,677.495 446.058,678.516 445.058,679.683L382.183,752.808C381.016,754.141 379.787,755.037 378.495,755.495C377.203,755.954 375.599,756.183 373.683,756.183C370.933,756.183 368.933,755.766 367.683,754.933C366.433,754.099 365.808,752.808 365.808,751.058C365.808,750.391 365.974,749.579 366.308,748.62C366.641,747.662 367.474,746.433 368.808,744.933L426.183,678.558L336.058,678.558C334.058,678.558 332.745,677.995 332.12,676.87C331.495,675.745 331.183,674.058 331.183,671.808C331.183,669.558 331.495,667.87 332.12,666.745C332.745,665.62 334.058,665.058 336.058,665.058L433.808,665.058Z" style="fill:white;fill-rule:nonzero;"/>
                <path d="M492.183,755.683C467.516,755.683 455.183,747.933 455.183,732.433L455.183,670.433C455.183,668.016 455.891,666.433 457.308,665.683C458.724,664.933 460.766,664.558 463.433,664.558C466.183,664.558 468.266,664.933 469.683,665.683C471.099,666.433 471.808,668.016 471.808,670.433L471.808,732.433C471.808,735.099 473.453,737.391 476.745,739.308C480.037,741.224 485.349,742.183 492.683,742.183L553.933,742.183C555.933,742.183 557.224,742.745 557.808,743.87C558.391,744.995 558.683,746.641 558.683,748.808C558.683,751.058 558.391,752.766 557.808,753.933C557.224,755.099 555.933,755.683 553.933,755.683L492.183,755.683Z" style="fill:white;fill-rule:nonzero;"/>
                <path d="M597.308,755.683C573.724,755.683 561.933,748.433 561.933,733.933L561.933,727.308C561.933,712.808 573.724,705.558 597.308,705.558L650.808,705.558L650.808,705.433C650.808,703.016 649.245,701.12 646.12,699.745C642.995,698.37 637.891,697.683 630.808,697.683L619.058,697.683C617.141,697.683 615.891,697.162 615.308,696.12C614.724,695.079 614.433,693.516 614.433,691.433C614.433,689.266 614.724,687.662 615.308,686.62C615.891,685.579 617.141,685.058 619.058,685.058L631.308,685.058C654.891,685.058 666.683,692.308 666.683,706.808L666.683,733.933C666.683,748.433 654.891,755.683 631.308,755.683L597.308,755.683ZM630.808,743.058C637.808,743.058 642.891,742.162 646.058,740.37C649.224,738.579 650.808,736.433 650.808,733.933L650.808,717.683L597.808,717.683C590.808,717.683 585.724,718.558 582.558,720.308C579.391,722.058 577.808,724.224 577.808,726.808L577.808,733.933C577.808,736.433 579.391,738.579 582.558,740.37C585.724,742.162 590.808,743.058 597.808,743.058L630.808,743.058Z" style="fill:white;fill-rule:nonzero;"/>
                <path d="M692.683,685.058L741.558,685.058C765.141,685.058 776.933,692.308 776.933,706.808L776.933,733.933C776.933,748.433 765.141,755.683 741.558,755.683L712.183,755.683C688.599,755.683 676.808,748.433 676.808,733.933L676.808,670.433C676.808,668.016 677.453,666.433 678.745,665.683C680.037,664.933 682.016,664.558 684.683,664.558C687.349,664.558 689.349,664.933 690.683,665.683C692.016,666.433 692.683,668.016 692.683,670.433L692.683,685.058ZM692.683,697.683L692.683,733.933C692.683,736.433 694.266,738.579 697.433,740.37C700.599,742.162 705.683,743.058 712.683,743.058L741.058,743.058C748.058,743.058 753.141,742.162 756.308,740.37C759.474,738.579 761.058,736.433 761.058,733.933L761.058,706.808C761.058,704.224 759.474,702.058 756.308,700.308C753.141,698.558 748.058,697.683 741.058,697.683L692.683,697.683Z" style="fill:white;fill-rule:nonzero;"/>
                <path d="M785.933,703.808C785.933,697.974 788.433,693.391 793.433,690.058C798.433,686.724 805.849,685.058 815.683,685.058L832.808,685.058C834.724,685.058 835.974,685.579 836.558,686.62C837.141,687.662 837.433,689.266 837.433,691.433C837.433,693.516 837.141,695.079 836.558,696.12C835.974,697.162 834.724,697.683 832.808,697.683L815.558,697.683C810.808,697.683 807.308,698.245 805.058,699.37C802.808,700.495 801.683,702.016 801.683,703.933L801.683,707.183C801.683,709.099 802.849,710.641 805.183,711.808C807.516,712.974 811.183,713.558 816.183,713.558L843.808,713.558C855.474,713.558 863.891,715.224 869.058,718.558C874.224,721.891 876.808,726.558 876.808,732.558L876.808,736.558C876.808,739.558 876.141,742.245 874.808,744.62C873.474,746.995 871.391,748.995 868.558,750.62C865.724,752.245 862.058,753.495 857.558,754.37C853.058,755.245 847.683,755.683 841.433,755.683L790.808,755.683C788.891,755.683 787.641,755.162 787.058,754.12C786.474,753.079 786.183,751.474 786.183,749.308C786.183,747.224 786.474,745.662 787.058,744.62C787.641,743.579 788.891,743.058 790.808,743.058L843.808,743.058C847.141,743.058 849.912,742.912 852.12,742.62C854.328,742.329 856.078,741.912 857.37,741.37C858.662,740.829 859.558,740.183 860.058,739.433C860.558,738.683 860.808,737.808 860.808,736.808L860.808,732.308C860.808,731.308 860.558,730.433 860.058,729.683C859.558,728.933 858.683,728.266 857.433,727.683C856.183,727.099 854.495,726.662 852.37,726.37C850.245,726.079 847.558,725.933 844.308,725.933L816.308,725.933C806.224,725.933 798.641,724.287 793.558,720.995C788.474,717.704 785.933,713.183 785.933,707.433L785.933,703.808Z" style="fill:white;fill-rule:nonzero;"/>
            </g>
        </g>
    </g>
</svg>
